<mxfile host="app.diagrams.net" agent="Mozilla/5.0 (X11; Linux x86_64) AppleWebKit/537.36 (KHTML, like Gecko) Chrome/133.0.0.0 Safari/537.36" version="26.0.14">
  <diagram name="Pagina-1" id="PflRe0ogG83HuggTVtXo">
    <mxGraphModel dx="2191" dy="793" grid="1" gridSize="10" guides="1" tooltips="1" connect="1" arrows="1" fold="1" page="1" pageScale="1" pageWidth="827" pageHeight="1169" math="0" shadow="0">
      <root>
        <mxCell id="0" />
        <mxCell id="1" parent="0" />
        <mxCell id="_nnPnt1iYVCu93g-lEAL-3" value="" style="edgeStyle=orthogonalEdgeStyle;rounded=0;orthogonalLoop=1;jettySize=auto;html=1;" edge="1" parent="1" source="_nnPnt1iYVCu93g-lEAL-1" target="_nnPnt1iYVCu93g-lEAL-2">
          <mxGeometry relative="1" as="geometry" />
        </mxCell>
        <mxCell id="_nnPnt1iYVCu93g-lEAL-1" value="START" style="ellipse;whiteSpace=wrap;html=1;" vertex="1" parent="1">
          <mxGeometry x="320" y="20" width="120" height="80" as="geometry" />
        </mxCell>
        <mxCell id="_nnPnt1iYVCu93g-lEAL-5" value="" style="edgeStyle=orthogonalEdgeStyle;rounded=0;orthogonalLoop=1;jettySize=auto;html=1;" edge="1" parent="1" source="_nnPnt1iYVCu93g-lEAL-2" target="_nnPnt1iYVCu93g-lEAL-4">
          <mxGeometry relative="1" as="geometry" />
        </mxCell>
        <mxCell id="_nnPnt1iYVCu93g-lEAL-2" value="n = 0" style="whiteSpace=wrap;html=1;" vertex="1" parent="1">
          <mxGeometry x="320" y="190" width="120" height="60" as="geometry" />
        </mxCell>
        <mxCell id="_nnPnt1iYVCu93g-lEAL-7" value="" style="edgeStyle=orthogonalEdgeStyle;rounded=0;orthogonalLoop=1;jettySize=auto;html=1;" edge="1" parent="1" source="_nnPnt1iYVCu93g-lEAL-4" target="_nnPnt1iYVCu93g-lEAL-6">
          <mxGeometry relative="1" as="geometry" />
        </mxCell>
        <mxCell id="_nnPnt1iYVCu93g-lEAL-4" value="read n" style="shape=parallelogram;perimeter=parallelogramPerimeter;whiteSpace=wrap;html=1;fixedSize=1;" vertex="1" parent="1">
          <mxGeometry x="320" y="330" width="120" height="60" as="geometry" />
        </mxCell>
        <mxCell id="_nnPnt1iYVCu93g-lEAL-9" value="" style="edgeStyle=orthogonalEdgeStyle;rounded=0;orthogonalLoop=1;jettySize=auto;html=1;" edge="1" parent="1" source="_nnPnt1iYVCu93g-lEAL-6" target="_nnPnt1iYVCu93g-lEAL-8">
          <mxGeometry relative="1" as="geometry" />
        </mxCell>
        <mxCell id="_nnPnt1iYVCu93g-lEAL-12" value="TRUE" style="edgeLabel;html=1;align=center;verticalAlign=middle;resizable=0;points=[];" vertex="1" connectable="0" parent="_nnPnt1iYVCu93g-lEAL-9">
          <mxGeometry x="-0.1714" relative="1" as="geometry">
            <mxPoint as="offset" />
          </mxGeometry>
        </mxCell>
        <mxCell id="_nnPnt1iYVCu93g-lEAL-11" value="" style="edgeStyle=orthogonalEdgeStyle;rounded=0;orthogonalLoop=1;jettySize=auto;html=1;" edge="1" parent="1" source="_nnPnt1iYVCu93g-lEAL-6">
          <mxGeometry relative="1" as="geometry">
            <mxPoint x="220" y="500" as="targetPoint" />
          </mxGeometry>
        </mxCell>
        <mxCell id="_nnPnt1iYVCu93g-lEAL-13" value="FALSE" style="edgeLabel;html=1;align=center;verticalAlign=middle;resizable=0;points=[];" vertex="1" connectable="0" parent="_nnPnt1iYVCu93g-lEAL-11">
          <mxGeometry x="-0.1833" y="2" relative="1" as="geometry">
            <mxPoint as="offset" />
          </mxGeometry>
        </mxCell>
        <mxCell id="_nnPnt1iYVCu93g-lEAL-6" value="if n == 1" style="rhombus;whiteSpace=wrap;html=1;" vertex="1" parent="1">
          <mxGeometry x="340" y="460" width="80" height="80" as="geometry" />
        </mxCell>
        <mxCell id="_nnPnt1iYVCu93g-lEAL-8" value="read n&quot;st&quot;" style="shape=parallelogram;perimeter=parallelogramPerimeter;whiteSpace=wrap;html=1;fixedSize=1;" vertex="1" parent="1">
          <mxGeometry x="480" y="470" width="120" height="60" as="geometry" />
        </mxCell>
        <mxCell id="_nnPnt1iYVCu93g-lEAL-15" style="edgeStyle=orthogonalEdgeStyle;rounded=0;orthogonalLoop=1;jettySize=auto;html=1;" edge="1" parent="1" source="_nnPnt1iYVCu93g-lEAL-14" target="_nnPnt1iYVCu93g-lEAL-17">
          <mxGeometry relative="1" as="geometry">
            <mxPoint x="270" y="640" as="targetPoint" />
            <Array as="points">
              <mxPoint x="180" y="630" />
            </Array>
          </mxGeometry>
        </mxCell>
        <mxCell id="_nnPnt1iYVCu93g-lEAL-16" value="TRUE" style="edgeLabel;html=1;align=center;verticalAlign=middle;resizable=0;points=[];" vertex="1" connectable="0" parent="_nnPnt1iYVCu93g-lEAL-15">
          <mxGeometry x="-0.7069" y="-1" relative="1" as="geometry">
            <mxPoint as="offset" />
          </mxGeometry>
        </mxCell>
        <mxCell id="_nnPnt1iYVCu93g-lEAL-19" value="" style="edgeStyle=orthogonalEdgeStyle;rounded=0;orthogonalLoop=1;jettySize=auto;html=1;" edge="1" parent="1" source="_nnPnt1iYVCu93g-lEAL-14" target="_nnPnt1iYVCu93g-lEAL-18">
          <mxGeometry relative="1" as="geometry" />
        </mxCell>
        <mxCell id="_nnPnt1iYVCu93g-lEAL-20" value="FALSE" style="edgeLabel;html=1;align=center;verticalAlign=middle;resizable=0;points=[];" vertex="1" connectable="0" parent="_nnPnt1iYVCu93g-lEAL-19">
          <mxGeometry x="-0.2" y="2" relative="1" as="geometry">
            <mxPoint as="offset" />
          </mxGeometry>
        </mxCell>
        <mxCell id="_nnPnt1iYVCu93g-lEAL-14" value="if n == 2" style="rhombus;whiteSpace=wrap;html=1;" vertex="1" parent="1">
          <mxGeometry x="140" y="460" width="80" height="80" as="geometry" />
        </mxCell>
        <mxCell id="_nnPnt1iYVCu93g-lEAL-17" value="read n &quot;nd&quot;" style="shape=parallelogram;perimeter=parallelogramPerimeter;whiteSpace=wrap;html=1;fixedSize=1;" vertex="1" parent="1">
          <mxGeometry x="294" y="600" width="120" height="60" as="geometry" />
        </mxCell>
        <mxCell id="_nnPnt1iYVCu93g-lEAL-24" value="" style="edgeStyle=orthogonalEdgeStyle;rounded=0;orthogonalLoop=1;jettySize=auto;html=1;" edge="1" parent="1" source="_nnPnt1iYVCu93g-lEAL-18" target="_nnPnt1iYVCu93g-lEAL-23">
          <mxGeometry relative="1" as="geometry">
            <Array as="points">
              <mxPoint x="20" y="710" />
            </Array>
          </mxGeometry>
        </mxCell>
        <mxCell id="_nnPnt1iYVCu93g-lEAL-25" value="TRUE" style="edgeLabel;html=1;align=center;verticalAlign=middle;resizable=0;points=[];" vertex="1" connectable="0" parent="_nnPnt1iYVCu93g-lEAL-24">
          <mxGeometry x="0.4045" y="1" relative="1" as="geometry">
            <mxPoint as="offset" />
          </mxGeometry>
        </mxCell>
        <mxCell id="_nnPnt1iYVCu93g-lEAL-27" value="" style="edgeStyle=orthogonalEdgeStyle;rounded=0;orthogonalLoop=1;jettySize=auto;html=1;" edge="1" parent="1" source="_nnPnt1iYVCu93g-lEAL-18">
          <mxGeometry relative="1" as="geometry">
            <mxPoint x="-110" y="500" as="targetPoint" />
          </mxGeometry>
        </mxCell>
        <mxCell id="_nnPnt1iYVCu93g-lEAL-28" value="FALSE" style="edgeLabel;html=1;align=center;verticalAlign=middle;resizable=0;points=[];" vertex="1" connectable="0" parent="_nnPnt1iYVCu93g-lEAL-27">
          <mxGeometry x="-0.3333" relative="1" as="geometry">
            <mxPoint as="offset" />
          </mxGeometry>
        </mxCell>
        <mxCell id="_nnPnt1iYVCu93g-lEAL-18" value="if n == 3" style="rhombus;whiteSpace=wrap;html=1;" vertex="1" parent="1">
          <mxGeometry x="-20" y="460" width="80" height="80" as="geometry" />
        </mxCell>
        <mxCell id="_nnPnt1iYVCu93g-lEAL-23" value="read n&quot;rd&quot;" style="shape=parallelogram;perimeter=parallelogramPerimeter;whiteSpace=wrap;html=1;fixedSize=1;" vertex="1" parent="1">
          <mxGeometry x="280" y="680" width="120" height="60" as="geometry" />
        </mxCell>
        <mxCell id="_nnPnt1iYVCu93g-lEAL-31" style="edgeStyle=orthogonalEdgeStyle;rounded=0;orthogonalLoop=1;jettySize=auto;html=1;exitX=0.5;exitY=1;exitDx=0;exitDy=0;" edge="1" parent="1" source="_nnPnt1iYVCu93g-lEAL-30">
          <mxGeometry relative="1" as="geometry">
            <mxPoint x="130" y="840" as="targetPoint" />
            <Array as="points">
              <mxPoint x="-160" y="840" />
            </Array>
          </mxGeometry>
        </mxCell>
        <mxCell id="_nnPnt1iYVCu93g-lEAL-30" value="read n &quot;th&quot;" style="shape=parallelogram;perimeter=parallelogramPerimeter;whiteSpace=wrap;html=1;fixedSize=1;" vertex="1" parent="1">
          <mxGeometry x="-220" y="470" width="120" height="60" as="geometry" />
        </mxCell>
        <mxCell id="_nnPnt1iYVCu93g-lEAL-35" style="edgeStyle=orthogonalEdgeStyle;rounded=0;orthogonalLoop=1;jettySize=auto;html=1;exitX=1;exitY=0.5;exitDx=0;exitDy=0;entryX=0;entryY=0.5;entryDx=0;entryDy=0;" edge="1" parent="1" source="_nnPnt1iYVCu93g-lEAL-33" target="_nnPnt1iYVCu93g-lEAL-34">
          <mxGeometry relative="1" as="geometry" />
        </mxCell>
        <mxCell id="_nnPnt1iYVCu93g-lEAL-33" value="" style="ellipse;whiteSpace=wrap;html=1;aspect=fixed;" vertex="1" parent="1">
          <mxGeometry x="130" y="826" width="30" height="30" as="geometry" />
        </mxCell>
        <mxCell id="_nnPnt1iYVCu93g-lEAL-34" value="END" style="ellipse;whiteSpace=wrap;html=1;" vertex="1" parent="1">
          <mxGeometry x="294" y="801" width="120" height="80" as="geometry" />
        </mxCell>
      </root>
    </mxGraphModel>
  </diagram>
</mxfile>
